<svg xmlns="http://www.w3.org/2000/svg" width="1400" height="800"><rect width="1400" height="800" fill="#050505"/><rect width="250" height="800" fill="#080808" stroke="#242424"/><text x="30" y="50" fill="#00d9ff" font-family="Arial" font-size="22" font-weight="700">✦ alertious</text><text x="30" y="70" fill="#777" font-family="Arial" font-size="11">from alerts to incidents.</text><line x1="0" y1="90" x2="250" y2="90" stroke="#242424"/><text x="35" y="135" fill="#fff" font-family="Arial" font-size="14">Overview</text><text x="35" y="180" fill="#fff" font-family="Arial" font-size="14">Incidents</text><text x="35" y="225" fill="#fff" font-family="Arial" font-size="14">Events</text><text x="35" y="270" fill="#00d9ff" font-family="Arial" font-size="14">Investigate</text><text x="35" y="315" fill="#fff" font-family="Arial" font-size="14">Rules</text><text x="35" y="360" fill="#fff" font-family="Arial" font-size="14">Simulator</text><text x="280" y="58" fill="#00d9ff" font-family="Arial" font-size="13" font-weight="700">Security operations</text><text x="280" y="90" fill="#fff" font-family="Arial" font-size="25" font-weight="700">Incidents</text><text x="280" y="118" fill="#777" font-family="Arial" font-size="14">Correlated alert groups awaiting review.</text><line x1="250" y1="145" x2="1400" y2="145" stroke="#242424"/><rect x="280" y="175" width="1080" height="480" fill="#090909" stroke="#252525"/><text x="300" y="205" fill="#777" font-family="Arial" font-size="13">ID</text><text x="450" y="205" fill="#777" font-family="Arial" font-size="13">TITLE</text><text x="780" y="205" fill="#777" font-family="Arial" font-size="13">SEVERITY</text><text x="980" y="205" fill="#777" font-family="Arial" font-size="13">RISK</text><line x1="295" y1="270" x2="1345" y2="270" stroke="#202020"/><text x="300" y="245" fill="#888" font-family="monospace" font-size="11">INC-00000001</text><text x="450" y="245" fill="#fff" font-family="Arial" font-size="13">Possible Account Compromise</text><rect x="780" y="229" width="80" height="25" rx="4" fill="#171117" stroke="#ff3b9d"/><text x="790" y="247" fill="#ff3b9d" font-family="Arial" font-size="9">SEVERITY</text><text x="980" y="245" fill="#ddd" font-family="monospace" font-size="12">100/100</text><line x1="295" y1="335" x2="1345" y2="335" stroke="#202020"/><text x="300" y="310" fill="#888" font-family="monospace" font-size="11">INC-00000002</text><text x="450" y="310" fill="#fff" font-family="Arial" font-size="13">Potential Data Access Incident</text><rect x="780" y="294" width="80" height="25" rx="4" fill="#171117" stroke="#ffd43b"/><text x="790" y="312" fill="#ffd43b" font-family="Arial" font-size="9">SEVERITY</text><text x="980" y="310" fill="#ddd" font-family="monospace" font-size="12">91/100</text><line x1="295" y1="400" x2="1345" y2="400" stroke="#202020"/><text x="300" y="375" fill="#888" font-family="monospace" font-size="11">INC-00000003</text><text x="450" y="375" fill="#fff" font-family="Arial" font-size="13">Possible Account Compromise</text><rect x="780" y="359" width="80" height="25" rx="4" fill="#171117" stroke="#ff8a00"/><text x="790" y="377" fill="#ff8a00" font-family="Arial" font-size="9">SEVERITY</text><text x="980" y="375" fill="#ddd" font-family="monospace" font-size="12">82/100</text><line x1="295" y1="465" x2="1345" y2="465" stroke="#202020"/><text x="300" y="440" fill="#888" font-family="monospace" font-size="11">INC-00000004</text><text x="450" y="440" fill="#fff" font-family="Arial" font-size="13">Correlated Security Activity</text><rect x="780" y="424" width="80" height="25" rx="4" fill="#171117" stroke="#888"/><text x="790" y="442" fill="#888" font-family="Arial" font-size="9">SEVERITY</text><text x="980" y="440" fill="#ddd" font-family="monospace" font-size="12">73/100</text><line x1="295" y1="530" x2="1345" y2="530" stroke="#202020"/><text x="300" y="505" fill="#888" font-family="monospace" font-size="11">INC-00000005</text><text x="450" y="505" fill="#fff" font-family="Arial" font-size="13">Privilege Escalation Activity</text><rect x="780" y="489" width="80" height="25" rx="4" fill="#171117" stroke="#ffd43b"/><text x="790" y="507" fill="#ffd43b" font-family="Arial" font-size="9">SEVERITY</text><text x="980" y="505" fill="#ddd" font-family="monospace" font-size="12">64/100</text><line x1="295" y1="595" x2="1345" y2="595" stroke="#202020"/><text x="300" y="570" fill="#888" font-family="monospace" font-size="11">INC-00000006</text><text x="450" y="570" fill="#fff" font-family="Arial" font-size="13">Unrecognized Device Activity</text><rect x="780" y="554" width="80" height="25" rx="4" fill="#171117" stroke="#ffd43b"/><text x="790" y="572" fill="#ffd43b" font-family="Arial" font-size="9">SEVERITY</text><text x="980" y="570" fill="#ddd" font-family="monospace" font-size="12">55/100</text></svg>